{
	"asset":{
		"generator":"Khronos glTF Blender I/O v3.6.27",
		"version":"2.0"
	},
	"scene":0,
	"scenes":[
		{
			"name":"Scene",
			"nodes":[
				0
			]
		}
	],
	"nodes":[
		{
			"mesh":0,
			"name":"Text",
			"rotation":[
				0.7071068286895752,
				0,
				0,
				0.7071068286895752
			]
		}
	],
	"materials":[
		{
			"doubleSided":true,
			"name":"Material.001",
			"pbrMetallicRoughness":{
				"baseColorFactor":[
					0.8000000715255737,
					0.02914760261774063,
					0.06346152722835541,
					1
				],
				"metallicFactor":0,
				"roughnessFactor":0.5
			}
		}
	],
	"meshes":[
		{
			"name":"Text",
			"primitives":[
				{
					"attributes":{
						"POSITION":0,
						"NORMAL":1,
						"TEXCOORD_0":2
					},
					"indices":3,
					"material":0
				}
			]
		}
	],
	"accessors":[
		{
			"bufferView":0,
			"componentType":5126,
			"count":1690,
			"max":[
				0.9325000643730164,
				0.1600000113248825,
				0.009999999776482582
			],
			"min":[
				-0.987500011920929,
				-0.1600000113248825,
				-0.6920000314712524
			],
			"type":"VEC3"
		},
		{
			"bufferView":1,
			"componentType":5126,
			"count":1690,
			"type":"VEC3"
		},
		{
			"bufferView":2,
			"componentType":5126,
			"count":1690,
			"type":"VEC2"
		},
		{
			"bufferView":3,
			"componentType":5123,
			"count":8400,
			"type":"SCALAR"
		}
	],
	"bufferViews":[
		{
			"buffer":0,
			"byteLength":20280,
			"byteOffset":0,
			"target":34962
		},
		{
			"buffer":0,
			"byteLength":20280,
			"byteOffset":20280,
			"target":34962
		},
		{
			"buffer":0,
			"byteLength":13520,
			"byteOffset":40560,
			"target":34962
		},
		{
			"buffer":0,
			"byteLength":16800,
			"byteOffset":54080,
			"target":34963
		}
	],
	"buffers":[
		{
			"byteLength":70880,
			"uri":"TRM.bin"
		}
	]
}
